<?xml version="1.0" encoding="UTF-8" ?>
<!DOCTYPE svg PUBLIC "-//W3C//DTD SVG 1.1//EN" "http://www.w3.org/Graphics/SVG/1.1/DTD/svg11.dtd">
<svg width="639pt" height="626pt" viewBox="0 0 639 626" version="1.1" xmlns="http://www.w3.org/2000/svg">
<g id="#fefffeff">
</g>
<g id="#0199b9ff">
<path fill="#0199b9" opacity="1.00" d=" M 266.42 22.26 C 282.47 11.62 301.75 5.62 321.07 6.31 C 338.98 6.44 356.51 12.56 371.46 22.25 C 362.47 27.41 353.66 32.98 345.99 40.00 C 334.83 49.76 326.15 61.98 319.00 74.89 C 312.12 62.08 303.45 50.12 292.58 40.40 C 284.72 33.21 275.81 27.26 266.42 22.26 Z" />
<path fill="#0199b9" opacity="1.00" d=" M 164.89 47.84 C 181.15 38.05 200.49 33.65 219.40 34.90 C 209.37 50.93 202.60 69.06 200.79 87.95 C 200.13 94.19 200.27 100.47 200.31 106.73 C 187.68 98.88 173.82 92.85 159.21 89.87 C 149.10 87.70 138.73 87.09 128.41 87.31 C 136.56 71.09 149.10 56.94 164.89 47.84 Z" />
<path fill="#0199b9" opacity="1.00" d=" M 246.25 40.85 C 251.66 43.26 257.10 45.65 262.15 48.76 C 279.92 59.73 293.59 76.92 300.87 96.45 C 275.51 99.06 250.31 104.88 227.10 115.58 C 222.47 89.42 229.80 61.65 246.25 40.85 Z" />
<path fill="#0199b9" opacity="1.00" d=" M 337.73 96.47 C 346.81 71.42 366.90 50.53 391.83 41.00 C 408.45 61.47 415.77 88.96 411.57 115.00 C 394.09 107.70 375.91 101.83 357.14 98.97 C 350.70 97.90 344.22 97.14 337.73 96.47 Z" />
<path fill="#0199b9" opacity="1.00" d=" M 120.27 113.59 C 146.17 109.54 173.78 116.67 193.94 133.56 C 187.67 138.41 181.15 142.95 175.06 148.03 C 161.69 159.12 149.83 171.95 139.35 185.79 C 123.34 165.74 116.34 138.92 120.27 113.59 Z" />
<path fill="#0199b9" opacity="1.00" d=" M 234.81 139.40 C 257.32 129.21 281.64 122.66 306.35 121.37 C 305.87 140.39 308.95 159.65 316.89 177.04 C 319.47 182.72 322.56 188.15 325.62 193.59 C 304.58 195.34 283.26 188.98 266.04 176.93 C 252.71 167.31 241.61 154.41 234.81 139.40 Z" />
<path fill="#0199b9" opacity="1.00" d=" M 332.46 121.32 C 357.18 122.68 381.72 128.82 404.17 139.28 C 400.23 146.72 396.04 154.06 392.92 161.90 C 386.23 177.97 383.70 195.50 384.15 212.83 C 374.21 208.07 365.09 201.55 357.58 193.46 C 351.16 185.98 345.04 178.06 341.07 168.98 C 334.08 154.19 331.38 137.59 332.46 121.32 Z" />
<path fill="#0199b9" opacity="1.00" d=" M 47.16 173.14 C 55.49 151.01 72.52 132.35 93.80 122.06 C 94.48 129.05 93.73 136.11 94.84 143.07 C 97.02 161.10 103.66 178.42 113.40 193.71 C 88.11 192.37 62.60 199.17 41.31 212.89 C 40.68 199.41 42.34 185.79 47.16 173.14 Z" />
<path fill="#0199b9" opacity="1.00" d=" M 157.60 203.50 C 171.95 183.03 190.51 165.61 211.60 152.24 C 217.13 160.68 221.96 169.67 228.83 177.15 C 238.86 189.19 251.60 198.75 265.41 206.05 C 252.68 215.13 237.40 220.23 221.87 221.54 C 211.52 223.01 201.07 221.34 190.97 219.06 C 178.99 216.05 167.68 210.61 157.60 203.50 Z" />
<path fill="#0199b9" opacity="1.00" d=" M 49.26 238.31 C 68.63 223.06 94.36 216.18 118.78 219.58 C 108.01 242.29 100.89 266.77 98.50 291.81 C 76.63 283.01 58.81 265.16 49.12 243.76 C 48.55 242.07 47.13 239.47 49.26 238.31 Z" />
<path fill="#0199b9" opacity="1.00" d=" M 123.13 298.61 C 124.74 273.47 131.74 248.59 143.64 226.37 C 153.83 231.13 163.36 237.35 174.17 240.73 C 188.66 245.87 204.13 247.50 219.43 247.29 C 213.69 258.59 206.11 269.20 196.07 277.07 C 176.26 294.15 148.97 301.80 123.13 298.61 Z" />
<path fill="#0199b9" opacity="1.00" d=" M 12.72 309.02 C 13.53 291.65 19.00 274.37 29.00 260.10 C 35.55 272.59 44.08 284.09 54.50 293.63 C 62.62 301.04 71.82 307.20 81.50 312.37 C 62.84 322.06 46.56 336.41 35.18 354.13 C 32.96 357.69 30.82 361.31 28.68 364.92 C 17.71 348.55 12.00 328.72 12.72 309.02 Z" />
</g>
<g id="#fb9e0dff">
<path fill="#fb9e0d" opacity="1.00" d=" M 418.51 34.72 C 436.25 33.76 454.34 37.44 469.92 46.10 C 486.74 55.44 501.24 69.75 509.19 87.41 C 492.87 86.95 476.41 89.20 461.13 95.10 C 453.05 97.87 445.82 102.49 438.16 106.20 C 437.26 99.50 438.12 92.70 436.93 86.03 C 435.88 75.29 432.96 64.82 429.01 54.81 C 426.22 47.76 422.23 41.30 418.51 34.72 Z" />
<path fill="#fb9e0d" opacity="1.00" d=" M 465.71 120.75 C 481.95 113.69 500.20 110.99 517.75 113.67 C 519.41 126.60 519.32 139.99 515.71 152.61 C 513.00 162.41 508.77 171.77 503.32 180.34 C 502.14 181.84 500.97 184.51 498.65 183.41 C 494.68 179.65 491.82 174.90 487.99 171.01 C 475.73 156.68 461.06 144.62 445.72 133.73 C 451.09 127.69 458.49 124.08 465.71 120.75 Z" />
<path fill="#fb9e0d" opacity="1.00" d=" M 544.57 122.43 C 556.16 127.67 566.00 136.18 574.43 145.58 C 590.05 163.85 598.16 188.39 596.40 212.37 C 590.62 209.65 585.08 206.44 579.30 203.71 C 562.29 196.12 543.51 193.31 524.99 193.54 C 534.84 177.18 542.03 158.90 543.54 139.74 C 543.69 133.96 543.62 128.16 544.57 122.43 Z" />
<path fill="#fb9e0d" opacity="1.00" d=" M 409.88 197.99 C 412.02 181.58 417.44 165.17 427.69 151.99 C 445.56 163.37 461.50 177.71 474.87 194.13 C 477.35 196.98 479.54 200.08 481.16 203.49 C 473.01 209.69 463.65 214.17 455.91 220.92 C 446.94 228.27 439.07 236.97 432.69 246.65 C 430.10 250.48 427.95 254.59 425.16 258.28 C 412.78 241.02 407.77 218.99 409.88 197.99 Z" />
<path fill="#fb9e0d" opacity="1.00" d=" M 521.15 220.38 C 538.53 217.50 556.56 221.15 572.39 228.58 C 578.70 231.45 584.68 235.07 590.05 239.48 C 586.61 251.96 578.39 262.41 569.98 271.98 C 561.45 279.77 552.28 287.52 541.17 291.28 C 538.42 266.76 531.80 242.66 521.15 220.38 Z" />
<path fill="#fb9e0d" opacity="1.00" d=" M 454.52 259.57 C 465.09 245.26 479.19 232.91 496.09 226.81 C 508.12 249.07 514.86 274.13 516.56 299.33 C 509.06 299.39 501.63 300.62 494.13 300.42 C 478.69 301.41 463.48 305.74 449.68 312.70 C 445.80 314.89 441.83 316.89 437.64 318.41 C 436.36 297.62 442.64 276.61 454.52 259.57 Z" />
<path fill="#fb9e0d" opacity="1.00" d=" M 584.10 293.11 C 594.32 283.81 602.37 272.42 609.08 260.40 C 618.57 273.67 623.64 289.85 624.95 306.03 C 625.99 313.30 624.73 320.61 623.90 327.83 C 621.30 340.82 617.01 353.85 609.01 364.56 C 604.09 356.45 599.24 348.23 592.85 341.16 C 587.28 335.08 581.46 329.17 574.85 324.21 C 569.32 319.69 562.98 316.36 556.87 312.73 C 566.39 306.85 576.08 301.00 584.10 293.11 Z" />
<path fill="#fb9e0d" opacity="1.00" d=" M 482.04 328.01 C 491.54 326.29 501.28 324.90 510.94 325.93 C 513.15 326.39 517.34 326.66 516.41 329.93 C 513.83 353.93 507.24 377.64 495.85 398.98 C 486.56 395.33 478.18 389.73 468.85 386.17 C 453.08 379.57 435.87 377.86 418.94 377.51 C 430.32 352.01 455.19 334.14 482.04 328.01 Z" />
<path fill="#fb9e0d" opacity="1.00" d=" M 541.01 334.15 C 563.73 343.24 581.18 362.75 590.48 385.10 C 576.28 397.01 558.30 404.20 539.88 405.83 C 533.58 406.82 527.19 406.41 520.94 405.39 C 531.24 382.87 538.62 358.87 541.01 334.15 Z" />
<path fill="#fb9e0d" opacity="1.00" d=" M 413.82 403.62 C 424.34 403.15 435.09 402.73 445.35 405.55 C 457.43 408.59 469.21 413.52 479.31 420.87 C 481.75 421.90 479.87 424.40 478.96 425.91 C 466.69 441.86 452.11 456.06 435.62 467.63 C 432.83 469.55 430.10 471.62 426.96 472.95 C 424.16 470.30 422.52 466.74 420.49 463.53 C 411.33 448.22 398.60 435.05 383.53 425.48 C 380.01 423.30 376.49 421.12 373.04 418.83 C 384.86 410.03 399.30 405.36 413.82 403.62 Z" />
<path fill="#fb9e0d" opacity="1.00" d=" M 578.62 421.57 C 584.78 419.07 590.47 415.61 596.44 412.73 C 598.24 439.46 588.19 467.12 568.55 485.55 C 561.65 492.61 553.45 498.43 544.47 502.52 C 543.48 495.71 543.85 488.83 543.18 482.01 C 541.74 472.46 539.73 462.93 536.01 453.98 C 533.19 446.08 528.95 438.82 524.95 431.48 C 543.25 431.85 561.86 429.21 578.62 421.57 Z" />
<path fill="#fb9e0d" opacity="1.00" d=" M 499.16 440.95 C 502.72 443.87 504.74 448.08 506.98 451.99 C 516.55 469.19 520.37 489.44 517.99 508.96 C 518.08 511.65 514.92 511.62 513.02 512.06 C 488.86 514.40 463.50 507.52 444.69 491.97 C 460.26 480.72 475.68 468.86 488.04 454.02 C 492.07 449.94 495.13 445.02 499.16 440.95 Z" />
</g>
<g id="#28c1dfff">
<path fill="#28c1df" opacity="1.00" d=" M 184.30 314.24 C 189.79 311.83 194.84 308.56 200.17 305.81 C 201.90 327.55 195.02 349.60 182.15 367.10 C 172.09 380.50 158.59 391.35 143.15 397.94 C 131.73 375.55 124.41 350.79 123.16 325.63 C 130.07 325.44 136.95 324.64 143.87 324.58 C 157.84 323.71 171.49 319.80 184.30 314.24 Z" />
<path fill="#28c1df" opacity="1.00" d=" M 49.13 381.14 C 58.60 359.60 76.31 341.44 98.31 332.75 C 100.31 350.22 103.85 367.57 109.93 384.11 C 112.45 391.08 115.44 397.87 118.31 404.70 C 97.99 407.72 76.76 403.25 59.00 393.03 C 55.23 390.85 51.37 388.67 48.25 385.60 C 48.10 384.06 48.57 382.55 49.13 381.14 Z" />
<path fill="#28c1df" opacity="1.00" d=" M 212.56 366.17 C 224.62 382.77 229.35 403.76 228.27 424.04 C 226.88 441.28 220.89 458.12 210.96 472.30 C 189.97 458.89 171.54 441.50 157.22 421.11 C 164.09 416.28 171.42 412.16 178.15 407.13 C 186.96 400.38 194.83 392.43 201.59 383.62 C 205.49 377.96 209.18 372.15 212.56 366.17 Z" />
<path fill="#28c1df" opacity="1.00" d=" M 41.53 412.35 C 52.09 418.46 63.16 423.87 75.00 427.01 C 87.35 430.40 100.20 431.61 112.98 431.38 C 102.82 448.26 95.44 467.21 94.29 487.03 C 94.24 492.36 94.32 497.70 93.69 503.01 C 75.47 493.97 60.15 479.03 51.12 460.76 C 43.57 445.90 40.46 428.94 41.53 412.35 Z" />
<path fill="#28c1df" opacity="1.00" d=" M 253.68 412.43 C 265.89 417.49 276.28 426.25 284.47 436.52 C 299.71 454.99 307.48 479.59 305.25 503.46 C 280.71 502.26 256.52 495.58 234.29 485.23 C 237.38 478.47 241.26 472.09 244.18 465.25 C 251.38 448.66 254.17 430.44 253.68 412.43 Z" />
<path fill="#28c1df" opacity="1.00" d=" M 312.26 431.45 C 320.84 431.10 329.51 431.16 337.93 433.03 C 353.66 436.96 368.86 444.04 380.74 455.25 C 390.02 464.05 398.37 474.29 403.18 486.25 C 380.65 496.32 356.27 502.61 331.59 503.70 C 332.01 485.66 329.28 467.42 322.18 450.75 C 319.41 444.05 315.86 437.72 312.26 431.45 Z" />
<path fill="#28c1df" opacity="1.00" d=" M 120.10 511.27 C 116.15 485.99 122.75 458.98 138.94 439.02 C 143.69 444.63 148.06 450.56 153.07 455.96 C 162.76 466.28 173.11 476.05 184.52 484.45 C 187.16 486.47 190.08 488.13 192.46 490.47 C 192.48 490.76 192.50 491.33 192.52 491.62 C 189.38 494.95 185.25 497.10 181.39 499.45 C 163.12 510.31 141.08 514.42 120.10 511.27 Z" />
<path fill="#28c1df" opacity="1.00" d=" M 226.46 509.58 C 249.93 519.45 274.75 526.15 300.14 528.50 C 291.20 553.66 270.94 574.27 246.13 584.03 C 229.38 563.46 222.09 535.73 226.46 509.58 Z" />
<path fill="#28c1df" opacity="1.00" d=" M 398.27 515.20 C 402.41 513.58 406.62 512.13 410.82 510.66 C 415.50 536.36 407.62 563.45 391.83 584.00 C 366.63 574.75 346.31 553.84 337.19 528.65 C 358.01 526.74 378.69 522.61 398.27 515.20 Z" />
<path fill="#28c1df" opacity="1.00" d=" M 188.67 524.67 C 192.44 522.71 196.14 520.64 199.84 518.56 C 200.48 525.08 200.04 531.65 200.80 538.16 C 202.14 550.38 205.44 562.38 210.42 573.62 C 212.89 579.37 216.21 584.68 219.13 590.20 C 202.48 591.04 185.53 587.98 170.65 580.34 C 152.31 571.38 137.40 555.96 128.65 537.56 C 149.32 538.31 170.26 534.20 188.67 524.67 Z" />
<path fill="#28c1df" opacity="1.00" d=" M 437.63 518.46 C 446.84 523.53 456.11 528.68 466.22 531.74 C 480.00 536.39 494.64 538.01 509.14 537.69 C 502.57 552.21 491.57 564.46 478.59 573.58 C 461.32 585.66 439.73 591.56 418.74 589.92 C 427.32 575.61 433.87 559.90 436.28 543.31 C 437.80 535.11 437.71 526.76 437.63 518.46 Z" />
<path fill="#28c1df" opacity="1.00" d=" M 298.05 579.05 C 306.43 570.60 313.10 560.67 318.87 550.31 C 326.82 564.35 336.47 577.69 349.13 587.88 C 355.87 593.84 363.69 598.31 371.38 602.89 C 356.62 612.21 339.58 618.46 321.98 618.65 C 302.46 619.44 282.86 613.55 266.71 602.63 C 278.13 596.20 289.05 588.65 298.05 579.05 Z" />
</g>
</svg>
